<svg width="15" height="9" viewBox="0 0 15 9" fill="none" xmlns="http://www.w3.org/2000/svg">
<path d="M13.8114 0.6574L7.5639 6.7474L1.3164 0.6574C1.20478 0.548372 1.05494 0.487334 0.898903 0.487334C0.742869 0.487334 0.593026 0.548372 0.481404 0.6574C0.427356 0.710356 0.384419 0.773562 0.355106 0.84332C0.325794 0.913078 0.310696 0.987984 0.310696 1.06365C0.310696 1.13932 0.325794 1.21422 0.355106 1.28398C0.384419 1.35374 0.427356 1.41694 0.481404 1.4699L7.12765 7.9499C7.24437 8.06367 7.40091 8.12734 7.5639 8.12734C7.72689 8.12734 7.88344 8.06367 8.00015 7.9499L14.6464 1.47115C14.7008 1.41816 14.7441 1.35479 14.7736 1.2848C14.8032 1.21481 14.8184 1.13962 14.8184 1.06365C14.8184 0.987683 14.8032 0.912485 14.7736 0.842496C14.7441 0.772507 14.7008 0.709145 14.6464 0.65615C14.5348 0.547122 14.3849 0.486084 14.2289 0.486084C14.0729 0.486084 13.923 0.547122 13.8114 0.65615V0.6574Z" fill="#FDFDFD"/>
</svg>
