<svg width="19" height="18" viewBox="0 0 19 18" fill="none" xmlns="http://www.w3.org/2000/svg">
<g clip-path="url(#clip0_1_196)">
<path d="M16.8764 18H2.2514C1.31765 18 0.563904 17.2463 0.563904 16.3125V2.8125C0.563904 1.87875 1.31765 1.125 2.2514 1.125H16.8764C17.8102 1.125 18.5639 1.87875 18.5639 2.8125V16.3125C18.5639 17.2463 17.8102 18 16.8764 18ZM2.2514 2.25C1.9364 2.25 1.6889 2.4975 1.6889 2.8125V16.3125C1.6889 16.6275 1.9364 16.875 2.2514 16.875H16.8764C17.1914 16.875 17.4389 16.6275 17.4389 16.3125V2.8125C17.4389 2.4975 17.1914 2.25 16.8764 2.25H2.2514Z" fill="#FDFDFD"/>
<path d="M5.6264 4.5C5.3114 4.5 5.0639 4.2525 5.0639 3.9375V0.5625C5.0639 0.2475 5.3114 0 5.6264 0C5.9414 0 6.1889 0.2475 6.1889 0.5625V3.9375C6.1889 4.2525 5.9414 4.5 5.6264 4.5ZM13.5014 4.5C13.1864 4.5 12.9389 4.2525 12.9389 3.9375V0.5625C12.9389 0.2475 13.1864 0 13.5014 0C13.8164 0 14.0639 0.2475 14.0639 0.5625V3.9375C14.0639 4.2525 13.8164 4.5 13.5014 4.5ZM18.0014 6.75H1.1264C0.811404 6.75 0.563904 6.5025 0.563904 6.1875C0.563904 5.8725 0.811404 5.625 1.1264 5.625H18.0014C18.3164 5.625 18.5639 5.8725 18.5639 6.1875C18.5639 6.5025 18.3164 6.75 18.0014 6.75Z" fill="#FDFDFD"/>
</g>
<defs>
<clipPath id="clip0_1_196">
<rect width="18" height="18" fill="white" transform="translate(0.563904)"/>
</clipPath>
</defs>
</svg>
